# Blender v2.77 (sub 0) OBJ File: ''
# www.blender.org
mtllib Triangle2.mtl
o Triangle2
v 1.696714 5.867691 0.079404
v 1.796564 6.877032 0.180002
v 1.457095 6.688509 -0.018817
v 1.396993 7.206252 -0.029683
v 1.939211 6.110435 0.018468
v 2.340698 7.298415 0.026226
v 3.271999 6.110435 0.099244
v 0.627046 0.000925 0.024178
v 0.008281 6.688509 -0.106625
v 1.011830 5.764006 0.164588
v 1.362214 4.912420 0.256132
v 1.389984 4.886837 0.263637
v 2.983250 7.402925 -0.002869
v 2.973770 7.405108 0.153544
v 2.987368 7.360250 -0.002024
v 2.977888 7.362432 0.154389
v 0.556391 7.165917 -0.146646
v 0.546911 7.168099 0.009766
v 0.560509 7.123242 -0.145802
v 0.551029 7.125424 0.010611
vn -0.4890 -0.0385 0.8714
vn 0.3601 -0.1277 0.9241
vn -0.0965 0.4488 0.8884
vn 0.0605 -0.0139 -0.9981
vn 0.1001 0.1470 0.9841
vn -0.0590 0.2215 0.9734
vn -0.2658 -0.0057 0.9640
vn 0.1312 -0.0690 0.9890
vn 0.9935 0.0970 0.0589
vn -0.0960 0.9952 -0.0197
vn -0.9935 -0.0970 -0.0589
vn 0.0960 -0.9952 0.0197
vn -0.0605 0.0139 0.9981
usemtl None
s off
f 1//1 2//1 3//1
f 3//1 2//1 4//1
f 5//2 6//2 1//2
f 1//2 6//2 2//2
f 4//3 2//3 6//3
f 5//4 7//4 8//4
f 4//4 6//4 3//4
f 3//4 6//4 5//4
f 3//4 5//4 9//4
f 9//4 5//4 8//4
f 3//5 10//5 1//5
f 1//5 10//5 11//5
f 1//5 11//5 5//5
f 9//6 10//6 3//6
f 10//7 9//7 11//7
f 11//7 9//7 8//7
f 11//7 8//7 12//7
f 7//8 12//8 8//8
f 7//6 5//6 12//6
f 12//6 5//6 11//6
f 13//9 14//9 15//9
f 15//9 14//9 16//9
f 17//10 18//10 13//10
f 13//10 18//10 14//10
f 19//11 20//11 17//11
f 17//11 20//11 18//11
f 15//12 16//12 19//12
f 19//12 16//12 20//12
f 18//13 20//13 14//13
f 14//13 20//13 16//13
f 19//4 17//4 15//4
f 15//4 17//4 13//4
