# Blender v2.78 (sub 0) OBJ File: ''
# www.blender.org
mtllib checkersquare.mtl
o checkersquare
v 0.000000 0.001719 -2.488047
v 0.000000 0.005814 1.809516
v 0.000000 0.871225 -2.488875
v 0.000000 0.875319 1.808688
v 4.297565 0.001720 -2.487386
v 4.297565 0.871225 -2.488214
v 4.297565 0.005815 1.810177
v 4.297565 0.875320 1.809349
vt 0.4534 0.2598
vt 0.4534 0.7402
vt 0.3933 0.2598
vt 0.3933 0.7402
vt 0.0093 0.0243
vt 0.3036 0.0247
vt 0.0093 0.1207
vt 0.3035 0.1210
vt 0.9199 0.7546
vt 0.9199 0.2512
vt 0.9828 0.7546
vt 0.9828 0.2512
vt 0.3070 0.9834
vt 0.0054 0.9824
vt 0.3071 0.8846
vt 0.0055 0.8836
vt 0.0044 0.7512
vt 0.0030 0.2565
vt 0.3100 0.7488
vt 0.3086 0.2541
vt 0.8440 0.2539
vt 0.8440 0.7513
vt 0.5367 0.2538
vt 0.5367 0.7512
vn -1.0000 0.0000 0.0000
vn 0.0002 -0.0010 -1.0000
vn 1.0000 0.0000 0.0000
vn -0.0002 0.0010 1.0000
vn -0.0000 1.0000 -0.0010
vn 0.0000 -1.0000 0.0010
usemtl None
s 1
f 1/1/1 2/2/1 3/3/1
f 3/3/1 2/2/1 4/4/1
f 5/5/2 1/6/2 6/7/2
f 6/7/2 1/6/2 3/8/2
f 7/9/3 5/10/3 8/11/3
f 8/11/3 5/10/3 6/12/3
f 2/13/4 7/14/4 4/15/4
f 4/15/4 7/14/4 8/16/4
f 8/17/5 6/18/5 4/19/5
f 4/19/5 6/18/5 3/20/5
f 5/21/6 7/22/6 1/23/6
f 1/23/6 7/22/6 2/24/6
